<svg version="1.1" id="Layer_1" xmlns="http://www.w3.org/2000/svg" xmlns:xlink="http://www.w3.org/1999/xlink" x="0px" y="0px"
	 width="100%" viewBox="0 0 949 259" enable-background="new 0 0 949 259" xml:space="preserve">
<path fill="#FFFFFF" opacity="1.000000" stroke="none" 
	d="
M701.000000,260.000000 
	C467.333344,260.000000 234.166672,260.000000 1.000000,260.000000 
	C1.000000,173.666672 1.000000,87.333336 1.000000,1.000000 
	C317.333344,1.000000 633.666687,1.000000 950.000000,1.000000 
	C950.000000,87.333336 950.000000,173.666672 950.000000,260.000000 
	C867.166687,260.000000 784.333313,260.000000 701.000000,260.000000 
M730.500000,193.002396 
	C792.911804,193.002396 855.323608,193.002396 917.659485,193.002396 
	C917.659485,153.650360 917.659485,114.929657 917.659485,76.312775 
	C676.966553,76.312775 436.616455,76.312775 196.340424,76.312775 
	C196.340424,115.349632 196.340424,154.070328 196.340424,193.002396 
	C374.288757,193.002396 551.894409,193.002396 730.500000,193.002396 
M182.000000,116.612595 
	C182.000000,114.842934 182.000000,113.073273 182.000000,111.274002 
	C176.351089,111.274002 171.289581,111.274002 166.274719,111.274002 
	C166.073105,112.561447 165.914383,113.575050 165.743530,114.666031 
	C148.782639,106.355408 134.392776,107.914505 125.768143,118.748016 
	C116.494316,130.396973 116.543716,150.414581 126.092484,161.511505 
	C131.073898,167.300583 137.359741,170.653305 145.240372,171.067856 
	C152.986176,171.475327 160.011383,170.142990 165.853470,163.995178 
	C166.950485,180.135284 157.529770,185.230804 145.826157,183.795181 
	C140.757446,183.173431 135.951797,180.407166 130.917145,178.575150 
	C129.004990,181.466141 127.223801,184.590500 125.015594,187.376419 
	C122.805321,190.164948 123.387047,191.345062 126.387032,193.183609 
	C134.917816,198.411758 144.153534,199.370911 153.795471,199.016861 
	C170.149765,198.416351 182.284744,186.890411 182.056046,170.569229 
	C181.808609,152.911407 182.000000,135.247437 182.000000,116.612595 
M86.043694,147.958389 
	C88.250977,147.057861 90.458252,146.157333 92.722504,145.233566 
	C93.548424,149.403229 98.895355,150.384628 107.635223,148.343674 
	C107.635223,119.924026 107.635223,91.542656 107.635223,63.224297 
	C102.658890,63.224297 98.049339,63.224297 93.163132,63.224297 
	C93.163132,71.720322 93.163132,80.001602 93.163132,87.637184 
	C86.611015,86.738464 80.271011,85.117073 73.937286,85.141251 
	C55.053879,85.213333 43.925522,99.747429 43.196274,115.538925 
	C42.249969,136.030762 60.722874,154.507004 86.043694,147.958389 
M88.510345,159.000000 
	C84.426910,159.000000 80.343483,159.000000 76.322586,159.000000 
	C76.322586,163.999069 76.322586,168.377121 76.322586,172.694153 
	C87.006821,172.694153 97.365585,172.694153 107.677826,172.694153 
	C107.677826,168.004120 107.677826,163.625290 107.677826,159.000000 
	C101.407631,159.000000 95.457649,159.000000 88.510345,159.000000 
z"/>
<path fill="#EA223B" opacity="1.000000" stroke="none" 
	d="
M730.000000,193.002396 
	C551.894409,193.002396 374.288757,193.002396 196.340424,193.002396 
	C196.340424,154.070328 196.340424,115.349632 196.340424,76.312775 
	C436.616455,76.312775 676.966553,76.312775 917.659485,76.312775 
	C917.659485,114.929657 917.659485,153.650360 917.659485,193.002396 
	C855.323608,193.002396 792.911804,193.002396 730.000000,193.002396 
M467.557861,111.630028 
	C466.853912,110.903992 466.177704,109.584221 465.441406,109.549782 
	C461.163849,109.349716 456.872131,109.451920 452.435913,109.451920 
	C452.435913,129.598175 452.435913,149.164795 452.435913,168.952545 
	C457.489960,168.952545 462.255188,168.952545 467.571838,168.952545 
	C467.571838,166.782242 467.553162,164.821686 467.574982,162.861603 
	C467.688019,152.703613 467.519714,142.530731 468.041412,132.393509 
	C468.350220,126.394020 472.784393,122.671440 478.563202,122.277695 
	C484.108185,121.899879 488.821411,125.376411 490.176208,131.154587 
	C490.700317,133.389771 490.783905,135.764206 490.798035,138.076843 
	C490.860596,148.338547 490.825134,158.600830 490.825134,168.898132 
	C496.243439,168.898132 500.992554,168.898132 506.174835,168.898132 
	C506.174835,167.000854 506.174774,165.374878 506.174866,163.748901 
	C506.175415,154.418152 506.094788,145.086441 506.203857,135.756958 
	C506.282074,129.066071 509.141327,124.549202 513.916443,123.021805 
	C522.201477,120.371696 529.074951,125.382561 529.350220,134.717834 
	C529.634949,144.373535 529.410889,154.043900 529.439148,163.707779 
	C529.444214,165.448639 529.593384,167.189072 529.675842,168.925354 
	C535.042908,168.925354 539.807617,168.925354 544.783875,168.925354 
	C544.783875,155.392273 545.444153,142.064224 544.595703,128.832947 
	C543.768921,115.939133 535.298340,108.447174 523.399536,107.808578 
	C514.674133,107.340302 508.078918,111.115738 502.918213,117.849190 
	C493.147247,106.081734 482.633881,104.677689 469.731628,112.991737 
	C469.313599,113.261101 468.316040,112.631050 467.557861,111.630028 
M639.150757,139.586990 
	C639.150757,149.355469 639.150757,159.123947 639.150757,168.782166 
	C644.753784,168.782166 649.651245,168.782166 654.048584,168.782166 
	C654.048584,154.434433 654.858093,140.419312 653.801880,126.546242 
	C652.897095,114.662498 643.721863,107.909286 631.781494,107.801964 
	C623.570862,107.728157 617.504761,111.527100 612.622314,118.134941 
	C608.637939,111.919960 603.251587,108.594742 596.145935,107.914650 
	C588.926575,107.223679 582.851379,109.624191 577.437622,114.815460 
	C577.207214,112.695442 577.051514,111.262459 576.882568,109.707687 
	C571.890320,109.707687 567.134216,109.707687 562.239868,109.707687 
	C562.239868,129.565598 562.239868,149.149277 562.239868,168.915634 
	C567.223206,168.915634 571.958130,168.915634 577.171204,168.915634 
	C577.171204,164.386032 577.128723,160.095169 577.180542,155.805435 
	C577.271118,148.315887 577.006470,140.790710 577.660645,133.348145 
	C578.307556,125.987991 583.034485,121.983742 589.356628,122.260368 
	C595.950745,122.548882 600.237671,127.152115 600.385498,134.639557 
	C600.566345,143.801010 600.432190,152.968658 600.434082,162.133636 
	C600.434570,164.381866 600.434204,166.630081 600.434204,168.946259 
	C605.985413,168.946259 610.755920,168.946259 616.006836,168.946259 
	C616.006836,158.442062 615.957825,148.154999 616.042297,137.869019 
	C616.062622,135.399338 616.208984,132.847122 616.851013,130.483276 
	C618.244507,125.352516 622.368591,122.334976 627.485535,122.242126 
	C632.449768,122.152046 636.923828,125.199471 638.323059,130.236557 
	C639.063477,132.902145 638.904053,135.817703 639.150757,139.586990 
M376.948364,145.445358 
	C380.835938,163.170944 396.685425,174.068069 413.417328,170.519180 
	C430.780334,166.836441 441.256744,150.905609 438.031586,133.089691 
	C435.051147,116.625389 418.948273,105.423325 402.175598,108.146233 
	C385.409363,110.868095 374.351654,126.776237 376.948364,145.445358 
M244.635101,108.564453 
	C228.178131,105.694138 214.281921,113.372818 209.178345,128.156891 
	C204.011490,143.124283 209.768372,159.437653 222.808243,166.780014 
	C235.923279,174.164734 254.070526,171.785080 262.402344,161.331039 
	C259.890747,158.038971 257.327026,154.678619 254.778915,151.338669 
	C245.901871,157.631012 238.682663,158.932861 232.026062,155.472321 
	C227.218506,152.973038 224.232529,149.124176 223.450302,143.111786 
	C238.365280,143.111786 252.655991,143.111786 266.865906,143.111786 
	C270.049896,127.671310 260.907623,113.250031 244.635101,108.564453 
M709.349487,109.930794 
	C693.101807,104.382706 677.488647,110.609146 670.759583,125.320190 
	C663.647156,140.869598 669.171021,158.937485 683.496033,166.979721 
	C696.477356,174.267593 715.351013,171.519180 722.629822,161.135971 
	C720.151855,157.929520 717.639160,154.678055 715.148621,151.455322 
	C700.479370,161.352310 685.497803,157.417816 684.152405,142.989624 
	C698.701965,142.989624 713.202271,142.989624 727.603821,142.989624 
	C729.196045,127.676033 723.328125,116.949013 709.349487,109.930794 
M874.458740,171.004486 
	C883.096008,170.825729 890.731506,168.299896 896.912109,161.570633 
	C894.229797,158.018631 891.676086,154.636887 889.036987,151.142014 
	C882.122498,157.168686 874.851196,159.108063 866.871704,155.707718 
	C861.715576,153.510483 858.650085,149.347610 857.785156,143.043976 
	C872.665466,143.043976 887.058777,143.043976 901.354248,143.043976 
	C905.123535,121.500626 886.166016,103.591400 865.393433,108.507240 
	C849.533813,112.260414 840.000793,126.785904 842.018250,144.123947 
	C843.812317,159.542007 856.940125,170.738144 874.458740,171.004486 
M333.183044,111.575356 
	C320.931458,118.979836 315.452423,129.998169 317.312897,144.005783 
	C319.043121,157.032730 326.718292,166.089981 339.378632,169.727036 
	C351.075287,173.087219 361.961090,170.800812 371.427307,162.075378 
	C368.645081,158.077698 366.130646,154.464783 363.618500,150.855179 
	C353.120667,158.135895 343.477325,158.230164 337.011292,151.387909 
	C331.327698,145.373566 330.893921,134.794250 336.069458,128.416656 
	C342.175934,120.891914 351.655914,120.485214 363.292938,127.493271 
	C366.125580,123.991570 368.994781,120.444611 371.830719,116.938820 
	C361.593781,107.201286 347.375275,105.177673 333.183044,111.575356 
M811.019653,156.110611 
	C803.790161,154.707962 799.552551,150.058838 798.197998,143.137695 
	C796.831848,136.157440 798.402588,129.661575 804.646790,125.445686 
	C812.866211,119.896255 820.766541,122.123497 828.516357,127.634285 
	C831.448975,123.965065 834.295166,120.403877 837.275024,116.675529 
	C827.890320,108.448570 817.487183,106.167862 806.129761,108.756538 
	C793.029114,111.742554 784.594971,121.732574 782.470276,135.883408 
	C780.708679,147.615387 787.038269,160.483597 797.683105,166.811462 
	C808.117798,173.014420 823.555176,172.257294 833.200256,165.227432 
	C835.972839,163.206650 836.982483,161.424927 834.346558,158.448532 
	C832.294922,156.131744 830.751099,153.365265 828.891968,150.668655 
	C823.701294,155.126694 818.220581,157.065689 811.019653,156.110611 
M744.593628,169.166901 
	C748.354309,169.166901 752.114990,169.166901 756.167908,169.166901 
	C756.167908,157.699722 756.066589,146.903946 756.195557,136.110916 
	C756.332947,124.611099 762.676697,120.479294 773.124146,124.873650 
	C773.362183,124.973785 773.732971,124.758476 774.360840,124.619881 
	C776.293518,120.131096 778.296997,115.477890 780.364319,110.676300 
	C771.042053,105.483826 763.394775,107.680122 756.431946,114.641739 
	C756.189941,112.638458 756.016846,111.205498 755.835327,109.702599 
	C750.834656,109.702599 746.070374,109.702599 740.844116,109.702599 
	C740.844116,128.897385 740.810059,147.834152 740.961487,166.769440 
	C740.967896,167.574661 742.693298,168.366119 744.593628,169.166901 
M276.437653,135.760376 
	C276.437653,138.814560 276.437653,141.868759 276.437653,144.823975 
	C287.157501,144.823975 297.020477,144.823975 306.857330,144.823975 
	C306.857330,140.421951 306.857330,136.369553 306.857330,131.996658 
	C297.455048,131.996658 288.359833,131.911392 279.271484,132.121628 
	C278.307343,132.143936 277.383240,133.898270 276.437653,135.760376 
z"/>
<path fill="#EA213A" opacity="1.000000" stroke="none" 
	d="
M182.000000,117.099380 
	C182.000000,135.247437 181.808609,152.911407 182.056046,170.569229 
	C182.284744,186.890411 170.149765,198.416351 153.795471,199.016861 
	C144.153534,199.370911 134.917816,198.411758 126.387032,193.183609 
	C123.387047,191.345062 122.805321,190.164948 125.015594,187.376419 
	C127.223801,184.590500 129.004990,181.466141 130.917145,178.575150 
	C135.951797,180.407166 140.757446,183.173431 145.826157,183.795181 
	C157.529770,185.230804 166.950485,180.135284 165.853470,163.995178 
	C160.011383,170.142990 152.986176,171.475327 145.240372,171.067856 
	C137.359741,170.653305 131.073898,167.300583 126.092484,161.511505 
	C116.543716,150.414581 116.494316,130.396973 125.768143,118.748016 
	C134.392776,107.914505 148.782639,106.355408 165.743530,114.666031 
	C165.914383,113.575050 166.073105,112.561447 166.274719,111.274002 
	C171.289581,111.274002 176.351089,111.274002 182.000000,111.274002 
	C182.000000,113.073273 182.000000,114.842934 182.000000,117.099380 
M141.642761,126.898079 
	C133.968033,133.152390 133.680756,140.450607 137.120407,147.395752 
	C140.840820,154.907776 148.665604,157.927002 156.534256,154.784576 
	C162.883987,152.248749 167.476532,142.534821 165.448273,135.930115 
	C162.156250,125.210182 153.358459,121.584923 141.642761,126.898079 
z"/>
<path fill="#EA213A" opacity="1.000000" stroke="none" 
	d="
M85.622208,147.977844 
	C60.722874,154.507004 42.249969,136.030762 43.196274,115.538925 
	C43.925522,99.747429 55.053879,85.213333 73.937286,85.141251 
	C80.271011,85.117073 86.611015,86.738464 93.163132,87.637184 
	C93.163132,80.001602 93.163132,71.720322 93.163132,63.224297 
	C98.049339,63.224297 102.658890,63.224297 107.635223,63.224297 
	C107.635223,91.542656 107.635223,119.924026 107.635223,148.343674 
	C98.895355,150.384628 93.548424,149.403229 92.722504,145.233566 
	C90.458252,146.157333 88.250977,147.057861 85.622208,147.977844 
M90.109131,108.556366 
	C87.039253,102.368340 81.175560,99.902847 75.184204,100.263863 
	C67.334869,100.736847 60.516560,105.867371 59.057804,114.734802 
	C57.842987,122.119377 63.229248,130.512253 70.261948,132.997040 
	C77.495567,135.552811 83.580009,133.189682 88.357391,127.979477 
	C93.392685,122.488029 94.098915,115.922150 90.109131,108.556366 
z"/>
<path fill="#EA213A" opacity="1.000000" stroke="none" 
	d="
M89.009003,159.000000 
	C95.457649,159.000000 101.407631,159.000000 107.677826,159.000000 
	C107.677826,163.625290 107.677826,168.004120 107.677826,172.694153 
	C97.365585,172.694153 87.006821,172.694153 76.322586,172.694153 
	C76.322586,168.377121 76.322586,163.999069 76.322586,159.000000 
	C80.343483,159.000000 84.426910,159.000000 89.009003,159.000000 
z"/>
<path fill="#FEF9FA" opacity="1.000000" stroke="none" 
	d="
M467.573242,112.025146 
	C468.316040,112.631050 469.313599,113.261101 469.731628,112.991737 
	C482.633881,104.677689 493.147247,106.081734 502.918213,117.849190 
	C508.078918,111.115738 514.674133,107.340302 523.399536,107.808578 
	C535.298340,108.447174 543.768921,115.939133 544.595703,128.832947 
	C545.444153,142.064224 544.783875,155.392273 544.783875,168.925354 
	C539.807617,168.925354 535.042908,168.925354 529.675842,168.925354 
	C529.593384,167.189072 529.444214,165.448639 529.439148,163.707779 
	C529.410889,154.043900 529.634949,144.373535 529.350220,134.717834 
	C529.074951,125.382561 522.201477,120.371696 513.916443,123.021805 
	C509.141327,124.549202 506.282074,129.066071 506.203857,135.756958 
	C506.094788,145.086441 506.175415,154.418152 506.174866,163.748901 
	C506.174774,165.374878 506.174835,167.000854 506.174835,168.898132 
	C500.992554,168.898132 496.243439,168.898132 490.825134,168.898132 
	C490.825134,158.600830 490.860596,148.338547 490.798035,138.076843 
	C490.783905,135.764206 490.700317,133.389771 490.176208,131.154587 
	C488.821411,125.376411 484.108185,121.899879 478.563202,122.277695 
	C472.784393,122.671440 468.350220,126.394020 468.041412,132.393509 
	C467.519714,142.530731 467.688019,152.703613 467.574982,162.861603 
	C467.553162,164.821686 467.571838,166.782242 467.571838,168.952545 
	C462.255188,168.952545 457.489960,168.952545 452.435913,168.952545 
	C452.435913,149.164795 452.435913,129.598175 452.435913,109.451920 
	C456.872131,109.451920 461.163849,109.349716 465.441406,109.549782 
	C466.177704,109.584221 466.853912,110.903992 467.573242,112.025146 
z"/>
<path fill="#FFFBFB" opacity="1.000000" stroke="none" 
	d="
M639.150757,139.103699 
	C638.904053,135.817703 639.063477,132.902145 638.323059,130.236557 
	C636.923828,125.199471 632.449768,122.152046 627.485535,122.242126 
	C622.368591,122.334976 618.244507,125.352516 616.851013,130.483276 
	C616.208984,132.847122 616.062622,135.399338 616.042297,137.869019 
	C615.957825,148.154999 616.006836,158.442062 616.006836,168.946259 
	C610.755920,168.946259 605.985413,168.946259 600.434204,168.946259 
	C600.434204,166.630081 600.434570,164.381866 600.434082,162.133636 
	C600.432190,152.968658 600.566345,143.801010 600.385498,134.639557 
	C600.237671,127.152115 595.950745,122.548882 589.356628,122.260368 
	C583.034485,121.983742 578.307556,125.987991 577.660645,133.348145 
	C577.006470,140.790710 577.271118,148.315887 577.180542,155.805435 
	C577.128723,160.095169 577.171204,164.386032 577.171204,168.915634 
	C571.958130,168.915634 567.223206,168.915634 562.239868,168.915634 
	C562.239868,149.149277 562.239868,129.565598 562.239868,109.707687 
	C567.134216,109.707687 571.890320,109.707687 576.882568,109.707687 
	C577.051514,111.262459 577.207214,112.695442 577.437622,114.815460 
	C582.851379,109.624191 588.926575,107.223679 596.145935,107.914650 
	C603.251587,108.594742 608.637939,111.919960 612.622314,118.134941 
	C617.504761,111.527100 623.570862,107.728157 631.781494,107.801964 
	C643.721863,107.909286 652.897095,114.662498 653.801880,126.546242 
	C654.858093,140.419312 654.048584,154.434433 654.048584,168.782166 
	C649.651245,168.782166 644.753784,168.782166 639.150757,168.782166 
	C639.150757,159.123947 639.150757,149.355469 639.150757,139.103699 
z"/>
<path fill="#FFFBFB" opacity="1.000000" stroke="none" 
	d="
M376.888397,145.028625 
	C374.351654,126.776237 385.409363,110.868095 402.175598,108.146233 
	C418.948273,105.423325 435.051147,116.625389 438.031586,133.089691 
	C441.256744,150.905609 430.780334,166.836441 413.417328,170.519180 
	C396.685425,174.068069 380.835938,163.170944 376.888397,145.028625 
M422.995483,140.340546 
	C422.822937,128.798935 415.345306,121.044899 405.791565,122.500648 
	C397.036713,123.834671 391.506165,130.883804 391.858063,140.260132 
	C392.185760,148.991470 398.407776,155.849411 406.501221,156.399963 
	C415.016785,156.979202 421.103241,151.365295 422.995483,140.340546 
z"/>
<path fill="#FFFBFC" opacity="1.000000" stroke="none" 
	d="
M245.036148,108.698311 
	C260.907623,113.250031 270.049896,127.671310 266.865906,143.111786 
	C252.655991,143.111786 238.365280,143.111786 223.450302,143.111786 
	C224.232529,149.124176 227.218506,152.973038 232.026062,155.472321 
	C238.682663,158.932861 245.901871,157.631012 254.778915,151.338669 
	C257.327026,154.678619 259.890747,158.038971 262.402344,161.331039 
	C254.070526,171.785080 235.923279,174.164734 222.808243,166.780014 
	C209.768372,159.437653 204.011490,143.124283 209.178345,128.156891 
	C214.281921,113.372818 228.178131,105.694138 245.036148,108.698311 
M249.530319,133.598663 
	C250.075470,132.892227 251.167770,132.109100 251.081177,131.491196 
	C250.207809,125.259476 243.650955,120.529312 236.760620,120.983818 
	C229.881393,121.437592 224.607590,126.634773 224.333878,133.602402 
	C232.467682,133.602402 240.591202,133.602402 249.530319,133.598663 
z"/>
<path fill="#FFFCFC" opacity="1.000000" stroke="none" 
	d="
M709.723145,110.044708 
	C723.328125,116.949013 729.196045,127.676033 727.603821,142.989624 
	C713.202271,142.989624 698.701965,142.989624 684.152405,142.989624 
	C685.497803,157.417816 700.479370,161.352310 715.148621,151.455322 
	C717.639160,154.678055 720.151855,157.929520 722.629822,161.135971 
	C715.351013,171.519180 696.477356,174.267593 683.496033,166.979721 
	C669.171021,158.937485 663.647156,140.869598 670.759583,125.320190 
	C677.488647,110.609146 693.101807,104.382706 709.723145,110.044708 
M691.651245,133.601288 
	C698.343201,133.601288 705.035095,133.601288 711.871338,133.601288 
	C709.928589,124.996811 704.942505,120.775185 697.672424,120.976669 
	C690.835876,121.166145 685.688721,125.876923 684.330017,133.600967 
	C686.507751,133.600967 688.606689,133.600967 691.651245,133.601288 
z"/>
<path fill="#FFFCFC" opacity="1.000000" stroke="none" 
	d="
M873.997681,171.004517 
	C856.940125,170.738144 843.812317,159.542007 842.018250,144.123947 
	C840.000793,126.785904 849.533813,112.260414 865.393433,108.507240 
	C886.166016,103.591400 905.123535,121.500626 901.354248,143.043976 
	C887.058777,143.043976 872.665466,143.043976 857.785156,143.043976 
	C858.650085,149.347610 861.715576,153.510483 866.871704,155.707718 
	C874.851196,159.108063 882.122498,157.168686 889.036987,151.142014 
	C891.676086,154.636887 894.229797,158.018631 896.912109,161.570633 
	C890.731506,168.299896 883.096008,170.825729 873.997681,171.004517 
M882.707153,125.849594 
	C878.645020,121.310394 873.683716,119.843903 867.870422,121.692932 
	C862.322815,123.457466 859.419983,127.515549 858.015259,133.179855 
	C867.533081,133.179855 876.653137,133.179855 886.525330,133.179855 
	C885.181641,130.512512 884.159363,128.483093 882.707153,125.849594 
z"/>
<path fill="#FFFAFB" opacity="1.000000" stroke="none" 
	d="
M333.499023,111.374176 
	C347.375275,105.177673 361.593781,107.201286 371.830719,116.938820 
	C368.994781,120.444611 366.125580,123.991570 363.292938,127.493271 
	C351.655914,120.485214 342.175934,120.891914 336.069458,128.416656 
	C330.893921,134.794250 331.327698,145.373566 337.011292,151.387909 
	C343.477325,158.230164 353.120667,158.135895 363.618500,150.855179 
	C366.130646,154.464783 368.645081,158.077698 371.427307,162.075378 
	C361.961090,170.800812 351.075287,173.087219 339.378632,169.727036 
	C326.718292,166.089981 319.043121,157.032730 317.312897,144.005783 
	C315.452423,129.998169 320.931458,118.979836 333.499023,111.374176 
z"/>
<path fill="#FFFBFB" opacity="1.000000" stroke="none" 
	d="
M811.454712,156.176773 
	C818.220581,157.065689 823.701294,155.126694 828.891968,150.668655 
	C830.751099,153.365265 832.294922,156.131744 834.346558,158.448532 
	C836.982483,161.424927 835.972839,163.206650 833.200256,165.227432 
	C823.555176,172.257294 808.117798,173.014420 797.683105,166.811462 
	C787.038269,160.483597 780.708679,147.615387 782.470276,135.883408 
	C784.594971,121.732574 793.029114,111.742554 806.129761,108.756538 
	C817.487183,106.167862 827.890320,108.448570 837.275024,116.675529 
	C834.295166,120.403877 831.448975,123.965065 828.516357,127.634285 
	C820.766541,122.123497 812.866211,119.896255 804.646790,125.445686 
	C798.402588,129.661575 796.831848,136.157440 798.197998,143.137695 
	C799.552551,150.058838 803.790161,154.707962 811.454712,156.176773 
z"/>
<path fill="#FFFCFC" opacity="1.000000" stroke="none" 
	d="
M744.105774,169.165436 
	C742.693298,168.366119 740.967896,167.574661 740.961487,166.769440 
	C740.810059,147.834152 740.844116,128.897385 740.844116,109.702599 
	C746.070374,109.702599 750.834656,109.702599 755.835327,109.702599 
	C756.016846,111.205498 756.189941,112.638458 756.431946,114.641739 
	C763.394775,107.680122 771.042053,105.483826 780.364319,110.676300 
	C778.296997,115.477890 776.293518,120.131096 774.360840,124.619881 
	C773.732971,124.758476 773.362183,124.973785 773.124146,124.873650 
	C762.676697,120.479294 756.332947,124.611099 756.195557,136.110916 
	C756.066589,146.903946 756.167908,157.699722 756.167908,169.166901 
	C752.114990,169.166901 748.354309,169.166901 744.105774,169.165436 
z"/>
<path fill="#FFFBFC" opacity="1.000000" stroke="none" 
	d="
M276.439117,135.304718 
	C277.383240,133.898270 278.307343,132.143936 279.271484,132.121628 
	C288.359833,131.911392 297.455048,131.996658 306.857330,131.996658 
	C306.857330,136.369553 306.857330,140.421951 306.857330,144.823975 
	C297.020477,144.823975 287.157501,144.823975 276.437653,144.823975 
	C276.437653,141.868759 276.437653,138.814560 276.439117,135.304718 
z"/>
<path fill="#FFFFFF" opacity="1.000000" stroke="none" 
	d="
M141.906006,126.617867 
	C153.358459,121.584923 162.156250,125.210182 165.448273,135.930115 
	C167.476532,142.534821 162.883987,152.248749 156.534256,154.784576 
	C148.665604,157.927002 140.840820,154.907776 137.120407,147.395752 
	C133.680756,140.450607 133.968033,133.152390 141.906006,126.617867 
z"/>
<path fill="#FFFFFF" opacity="1.000000" stroke="none" 
	d="
M90.368790,108.841660 
	C94.098915,115.922150 93.392685,122.488029 88.357391,127.979477 
	C83.580009,133.189682 77.495567,135.552811 70.261948,132.997040 
	C63.229248,130.512253 57.842987,122.119377 59.057804,114.734802 
	C60.516560,105.867371 67.334869,100.736847 75.184204,100.263863 
	C81.175560,99.902847 87.039253,102.368340 90.368790,108.841660 
z"/>
<path fill="#EA243C" opacity="1.000000" stroke="none" 
	d="
M422.991638,140.766968 
	C421.103241,151.365295 415.016785,156.979202 406.501221,156.399963 
	C398.407776,155.849411 392.185760,148.991470 391.858063,140.260132 
	C391.506165,130.883804 397.036713,123.834671 405.791565,122.500648 
	C415.345306,121.044899 422.822937,128.798935 422.991638,140.766968 
z"/>
<path fill="#EB3048" opacity="1.000000" stroke="none" 
	d="
M249.122528,133.600525 
	C240.591202,133.602402 232.467682,133.602402 224.333878,133.602402 
	C224.607590,126.634773 229.881393,121.437592 236.760620,120.983818 
	C243.650955,120.529312 250.207809,125.259476 251.081177,131.491196 
	C251.167770,132.109100 250.075470,132.892227 249.122528,133.600525 
z"/>
<path fill="#EB2F47" opacity="1.000000" stroke="none" 
	d="
M691.178406,133.601135 
	C688.606689,133.600967 686.507751,133.600967 684.330017,133.600967 
	C685.688721,125.876923 690.835876,121.166145 697.672424,120.976669 
	C704.942505,120.775185 709.928589,124.996811 711.871338,133.601288 
	C705.035095,133.601288 698.343201,133.601288 691.178406,133.601135 
z"/>
<path fill="#EB2F47" opacity="1.000000" stroke="none" 
	d="
M882.922119,126.151627 
	C884.159363,128.483093 885.181641,130.512512 886.525330,133.179855 
	C876.653137,133.179855 867.533081,133.179855 858.015259,133.179855 
	C859.419983,127.515549 862.322815,123.457466 867.870422,121.692932 
	C873.683716,119.843903 878.645020,121.310394 882.922119,126.151627 
z"/>
</svg>